<svg xmlns="http://www.w3.org/2000/svg" xmlns:xlink="http://www.w3.org/1999/xlink" version="1.1" x="0px" y="0px" viewBox="0 0 65 81.25" enable-background="new 0 0 65 65" xml:space="preserve"><g><rect x="54.2" y="15.9" width="5.8" height="1.5"/><rect x="14.9" y="15.9" width="5.8" height="1.5"/><rect x="5.1" y="15.9" width="7.9" height="1.5"/><rect x="49.5" y="15.9" width="2.9" height="1.5"/><rect x="26.2" y="15.9" width="1.5" height="1.5"/><rect x="23" y="15.9" width="1.5" height="1.5"/><rect x="29.6" y="15.9" width="18" height="1.5"/><rect x="5.1" y="21.3" width="5.8" height="1.5"/><rect x="44.4" y="21.3" width="5.8" height="1.5"/><rect x="52" y="21.3" width="7.9" height="1.5"/><rect x="12.6" y="21.3" width="2.9" height="1.5"/><rect x="37.3" y="21.3" width="1.5" height="1.5"/><rect x="40.5" y="21.3" width="1.5" height="1.5"/><rect x="17.4" y="21.3" width="18" height="1.5"/><rect x="58.4" y="32.1" width="1.5" height="1.5"/><rect x="55.2" y="32.1" width="1.5" height="1.5"/><rect x="38.6" y="32.1" width="14.7" height="1.5"/><rect x="40.6" y="37.5" width="11.3" height="1.5"/><rect x="31" y="32.1" width="5.8" height="1.5"/><rect x="31" y="26.7" width="10.8" height="1.5"/><rect x="53.7" y="37.5" width="6.2" height="1.5"/><rect x="53" y="26.7" width="6.9" height="1.5"/><rect x="46.7" y="26.7" width="1.5" height="1.5"/><rect x="49.9" y="26.7" width="1.5" height="1.5"/><rect x="43.5" y="26.7" width="1.5" height="1.5"/><rect x="34.2" y="37.5" width="1.5" height="1.5"/><rect x="37.4" y="37.5" width="1.5" height="1.5"/><rect x="31" y="37.5" width="1.5" height="1.5"/><rect x="50.8" y="6.9" width="1.5" height="1.5"/><rect x="58.4" y="6.9" width="1.5" height="1.5"/><rect x="54.6" y="6.9" width="1.5" height="1.5"/><rect x="5.7" y="6.9" width="40.1" height="1.5"/><path d="M65.3,49.1V3.6H-0.2v45.5h24v7.7h-5.1v4.7h27.8v-4.7h-5.1v-7.7H65.3z M63.8,42.5H1.3V11.9h62.5V42.5z M63.8,5.1v5.4H1.3   V5.1H63.8z M1.3,47.6V44h62.5v3.6H1.3z M44.9,58.2v1.7H20.1v-1.7H44.9z M39.8,56.7H25.3v-7.7h14.5V56.7z"/><path d="M28.8,40.2v-15H5v15H28.8z M6.5,26.7h20.8v12H6.5V26.7z"/><polygon points="20.1,30.7 22.2,32.7 20.1,34.6 21.2,35.7 24.4,32.7 21.2,29.6  "/><polygon points="12.7,29.6 9.5,32.7 12.7,35.7 13.7,34.6 11.7,32.7 13.7,30.7  "/><rect x="16.2" y="27.2" transform="matrix(-0.8964 -0.4433 0.4433 -0.8964 17.6375 69.4477)" width="1.5" height="11"/></g><text x="0" y="80" fill="#000000" font-size="5px" font-weight="bold" font-family="'Helvetica Neue', Helvetica, Arial-Unicode, Arial, Sans-serif">Created by Creative Stall</text><text x="0" y="85" fill="#000000" font-size="5px" font-weight="bold" font-family="'Helvetica Neue', Helvetica, Arial-Unicode, Arial, Sans-serif">from the Noun Project</text></svg>